<?xml version="1.0" encoding="iso-8859-1"?>
<!-- Uploaded to: SVG Repo, www.svgrepo.com, Generator: SVG Repo Mixer Tools -->
<!DOCTYPE svg PUBLIC "-//W3C//DTD SVG 1.1//EN" "http://www.w3.org/Graphics/SVG/1.1/DTD/svg11.dtd">
<svg fill="#000000" version="1.1" id="Capa_1" xmlns="http://www.w3.org/2000/svg" xmlns:xlink="http://www.w3.org/1999/xlink" 
	 width="800px" height="800px" viewBox="0 0 414.373 414.373"
	 xml:space="preserve">
<g>
	<path d="M323.891,0H90.482c-12.27,0-22.215,9.946-22.215,22.216v369.94c0,12.271,9.945,22.217,22.215,22.217h233.408
		c12.27,0,22.215-9.945,22.215-22.217V22.216C346.105,9.947,336.16,0,323.891,0z M243.812,259.918
		c-7.026,0-13.696-1.533-19.694-4.277v29.711h14.812c3.115,0,5.643,2.527,5.643,5.645v11.314c0,3.115-2.525,5.644-5.643,5.644
		h-63.484c-3.116,0-5.643-2.526-5.643-5.644v-11.314c0-3.116,2.526-5.645,5.643-5.645h14.813v-29.711
		c-5.998,2.744-12.668,4.277-19.695,4.277c-26.181,0-47.404-21.225-47.404-47.404c0-23.035,16.434-42.225,38.214-46.504
		c-1.032-3.89-1.589-7.972-1.589-12.186c0-26.181,21.225-47.404,47.404-47.404s47.403,21.224,47.403,47.404
		c0,4.213-0.557,8.295-1.588,12.186c21.779,4.28,38.214,23.47,38.214,46.504C291.216,238.695,269.992,259.918,243.812,259.918z"/>
</g>
</svg>